<?xml version="1.0" standalone="no"?>
<!DOCTYPE svg PUBLIC "-//W3C//DTD SVG 20010904//EN"
 "http://www.w3.org/TR/2001/REC-SVG-20010904/DTD/svg10.dtd">
<svg version="1.0" xmlns="http://www.w3.org/2000/svg"
 width="256.000000pt" height="256.000000pt" viewBox="0 0 256.000000 256.000000"
 preserveAspectRatio="xMidYMid meet">

<g transform="translate(0.000000,256.000000) scale(0.100000,-0.100000)"
fill="#0079C2" stroke="none">
<path d="M1165 2550 c-11 -5 -37 -9 -58 -9 -68 -2 -251 -55 -362 -106 -385
-177 -663 -550 -726 -975 -26 -176 -23 -257 18 -450 110 -517 535 -913 1063
-991 181 -27 268 -23 465 23 113 26 162 42 250 83 360 166 625 498 708 885 41
193 44 274 18 450 -54 369 -265 694 -581 895 -157 100 -300 151 -546 194 -71
13 -220 13 -249 1z m317 -351 c72 -15 161 -46 232 -81 60 -30 156 -117 156
-141 0 -7 17 -23 38 -35 97 -54 162 -129 162 -185 0 -20 13 -41 44 -72 54 -53
74 -110 58 -169 -9 -35 -8 -43 14 -72 80 -104 0 -239 -198 -336 -97 -47 -193
-83 -262 -98 -202 -42 -408 -80 -513 -96 -24 -3 -45 -9 -47 -13 -10 -16 164
-35 304 -34 223 2 442 49 638 139 74 34 98 31 69 -7 -24 -32 -203 -110 -332
-145 -178 -47 -247 -57 -430 -56 -177 0 -255 9 -423 52 -43 10 -98 3 -130 -19
-28 -17 156 -78 343 -112 103 -19 379 -17 495 4 125 22 290 63 336 82 43 18
54 19 54 5 0 -41 -149 -100 -395 -156 -64 -15 -120 -19 -285 -18 -273 1 -387
22 -616 115 -35 14 -64 7 -64 -16 0 -29 201 -111 360 -148 250 -58 504 -47
785 32 38 11 71 18 73 17 10 -11 -17 -37 -56 -54 -167 -70 -338 -102 -541
-102 -181 1 -279 17 -441 74 -145 52 -152 53 -95 14 104 -72 222 -124 335
-148 64 -14 370 -8 440 8 25 6 57 14 73 18 41 10 34 -13 -10 -32 -130 -54
-206 -69 -363 -69 -140 0 -206 9 -307 41 -160 51 -331 176 -362 265 -8 23 -27
44 -58 64 -26 17 -60 47 -77 68 -27 34 -31 47 -31 99 0 55 -3 62 -32 86 -17
15 -36 37 -42 49 -14 27 -14 96 -1 109 8 8 3 27 -16 62 -22 42 -25 59 -20 95
14 93 104 188 241 253 82 40 286 108 388 130 40 9 90 20 112 25 54 12 117 24
260 48 142 25 215 42 215 52 0 24 -400 28 -530 5 -237 -42 -413 -105 -568
-203 -72 -45 -83 -44 -63 10 10 26 82 74 199 132 150 74 286 117 459 145 69
11 426 16 454 6 8 -3 52 -10 98 -16 93 -11 131 1 131 39 0 24 -38 37 -218 71
-71 13 -378 13 -461 -1 -165 -28 -375 -87 -504 -143 l-39 -17 19 31 c43 75
347 177 623 210 187 22 441 1 568 -47 11 -5 13 -3 7 7 -12 19 -142 76 -215 94
-139 33 -240 40 -366 27 -114 -12 -296 -50 -334 -71 -22 -12 -40 -13 -40 -2 0
13 63 48 135 74 64 24 100 34 210 57 58 13 295 13 357 0z"/>
<path d="M1842 1849 c-7 -12 -12 -22 -10 -24 11 -9 98 -32 102 -27 8 7 -54 72
-69 72 -5 0 -16 -9 -23 -21z"/>
<path d="M1713 1734 c-46 -27 -55 -44 -23 -44 11 0 53 -10 94 -22 l73 -21 32
23 c18 12 29 26 24 31 -5 5 -35 17 -68 28 -33 10 -67 22 -75 25 -8 3 -34 -6
-57 -20z"/>
<path d="M1450 1624 c-14 -2 -63 -8 -110 -14 -255 -31 -586 -115 -738 -187
-93 -44 -152 -99 -152 -141 0 -43 15 -48 52 -17 32 27 156 89 212 107 31 10
43 13 151 43 88 24 234 54 565 114 116 21 256 54 263 61 14 13 -188 42 -243
34z"/>
<path d="M2015 1610 c-20 -22 -21 -21 17 -38 35 -14 45 0 24 33 -20 30 -18 30
-41 5z"/>
<path d="M1870 1521 c-39 -22 -194 -68 -305 -91 -33 -6 -69 -14 -80 -16 -11
-2 -72 -13 -135 -25 -250 -43 -443 -86 -566 -125 -85 -27 -215 -92 -221 -110
-2 -6 12 -19 31 -29 35 -19 36 -19 82 4 55 26 105 43 189 64 135 35 221 52
375 77 195 32 271 47 426 85 144 35 324 103 324 123 0 8 -84 52 -98 52 -4 0
-14 -4 -22 -9z"/>
<path d="M2052 1377 c-18 -21 -148 -82 -227 -107 -162 -50 -283 -77 -535 -120
-310 -52 -490 -95 -497 -117 -2 -5 23 -22 56 -37 l59 -26 99 24 c54 14 116 28
138 31 22 3 60 10 85 15 25 5 72 13 105 19 254 46 367 72 475 108 178 60 285
133 278 191 -4 30 -20 39 -36 19z"/>
<path d="M490 1040 c10 -19 40 -28 40 -12 0 13 -23 32 -37 32 -11 0 -11 -5 -3
-20z"/>
<path d="M630 955 c-15 -18 -17 -15 37 -45 37 -20 44 -21 71 -9 37 16 34 23
-23 49 -53 24 -69 25 -85 5z"/>
<path d="M586 825 c18 -27 29 -31 39 -14 8 11 -22 38 -43 39 -9 0 -8 -7 4 -25z"/>
</g>
</svg>
